<svg width="715" height="592" viewBox="0 0 715 592" fill="none" xmlns="http://www.w3.org/2000/svg">
<g clip-path="url(#clip0_1_2)">
<path d="M120.71 273.75C57.05 302.37 42.25 169.35 108.06 117.15C108.06 117.15 120.81 116.17 108.29 160C108.29 160 173.52 138.31 152.74 88.2C135.91 47.6 47.12 91.92 25.5 165.27C1.78001 245.74 36.74 372.66 120.72 273.74L120.71 273.75Z" fill="#FFECDB" stroke="#1D1D1B" stroke-width="4" stroke-linecap="round" stroke-linejoin="round"/>
<path d="M469.09 51.97C469.09 51.97 458.73 4.63999 403.97 33.14C427.32 34.94 427.32 54.25 411.61 120.72C395.89 187.19 374.54 255.01 425.53 255.01C440.8 255.01 465.5 232.1 465.5 232.1C465.5 232.1 423.13 254.39 452.4 175.25C452.4 175.25 504.83 169.61 532.44 122.65C562.02 72.35 537.15 -24.03 469.09 51.97ZM459.54 138.22C456.06 106.46 476.93 65.64 494.14 76.88C511.35 88.13 488.69 127.78 459.54 138.22Z" fill="#FFECDB" stroke="#1D1D1B" stroke-width="4" stroke-linecap="round" stroke-linejoin="round"/>
<path d="M248.19 58.04C273.91 66.01 267.66 101.63 257.53 144.79L214.78 150.25C215.82 144.69 216.75 139.12 217.5 133.59C226.86 65.01 192.76 48.89 153.6 70.67C198.81 84.68 145.25 184.1 145.45 259.71C145.63 328.81 213.94 268.24 213.94 268.24C184.75 274.69 193.85 239.18 205.03 193.62L247.46 188.2C243.23 208.18 239.98 228.36 240.03 247.08C240.21 316.18 308.52 255.61 308.52 255.61C267.13 264.76 302.72 189.54 312.07 120.96C321.43 52.38 287.34 36.26 248.18 58.04H248.19Z" fill="#FFECDB" stroke="#1D1D1B" stroke-width="4" stroke-linecap="round" stroke-linejoin="round"/>
<path d="M324.35 45.84C363.5 24.31 397.6 40.28 388.28 108.14C378.96 176 343.42 250.41 384.8 241.38C384.8 241.38 316.51 301.28 316.3 232.9C316.07 158.08 369.57 59.73 324.35 45.84Z" fill="#FFECDB" stroke="#1D1D1B" stroke-width="4" stroke-linecap="round" stroke-linejoin="round"/>
<path d="M549.11 11.04C588.24 -10.71 622.36 5.48 613.1 74.16C603.84 142.84 568.36 218.13 609.74 209.02C609.74 209.02 541.5 269.59 541.22 200.37C540.92 124.64 594.34 25.13 549.1 11.03" fill="#FFECDB"/>
<path d="M549.11 11.04C588.24 -10.71 622.36 5.48 613.1 74.16C603.84 142.84 568.36 218.13 609.74 209.02C609.74 209.02 541.5 269.59 541.22 200.37C540.92 124.64 594.34 25.13 549.1 11.03" stroke="#1D1D1B" stroke-width="4" stroke-linecap="round" stroke-linejoin="round"/>
<path d="M25.75 176.1C12.75 236.64 30.43 305.19 65.65 305.86C85.1 305.86 106.35 282.45 106.35 282.45C106.35 282.45 69.11 286.13 62.12 229.81C58.72 192.42 67.27 176.1 67.27 176.1H25.75Z" fill="url(#paint0_linear_1_2)"/>
<path d="M336.4 138.22H379.9C379.9 138.22 366.31 191.12 363.65 206.38C360.99 221.64 357.62 243.11 372.7 244.71C347.7 263.93 325.16 267.73 321.92 239.29C318.35 207.88 335.28 143.97 336.4 138.22Z" fill="url(#paint1_linear_1_2)"/>
<path d="M559.7 106.6H603.2C603.2 106.6 589.61 159.5 586.95 174.76C584.29 190.02 580.92 211.49 596 213.09C571 232.31 548.46 236.11 545.22 207.67C541.65 176.26 558.58 112.35 559.7 106.6Z" fill="url(#paint2_linear_1_2)"/>
<path d="M415.23 128.05L455.55 122.58C455.55 122.58 454.52 137.27 456.77 143.16C456.77 143.16 483.22 136.14 492.44 117.57C506.14 115.71 532.56 112.13 532.56 112.13C532.56 112.13 516.67 161.66 447.8 171.01C441.32 185.65 426 242.98 450.69 237.92C426 254.37 400.66 252.59 398.66 220.57C396.66 188.55 415.23 128.04 415.23 128.04V128.05Z" fill="url(#paint3_linear_1_2)"/>
<path d="M167.99 159.18L302.01 143.55C302.01 143.55 291.54 186.7 288.46 200.24C285.38 213.78 276.25 255.11 294.71 259.01C270.79 283.28 240.4 283.38 243.89 243.88C247.38 204.38 253.47 184.34 253.47 184.34L200.9 189.46C200.9 189.46 173.59 271.91 199.38 271.91C184.72 291.24 151.88 296.94 150.58 269.03C148.61 226.8 167.98 159.17 167.98 159.17L167.99 159.18Z" fill="url(#paint4_linear_1_2)"/>
<path d="M155.36 78.91C150.07 83.28 168.07 85.86 156.82 131.02C145.57 176.19 124.4 280.36 139.45 308.52C153.63 335.05 191.95 336.69 210.55 311.62C218.96 300.28 214.97 271.75 214.97 271.75C214.97 271.75 191.9 296.81 169.79 297.96C147.48 299.12 140.51 283.72 140.26 254.11C140.01 224.5 153.13 178.76 156.83 161.19C160.53 143.63 165.6 121.9 164.42 99.63C163.24 77.35 155.37 78.91 155.37 78.91H155.36Z" fill="url(#paint5_linear_1_2)"/>
<path d="M244.13 65.22C240.74 69.6 251.9 70.4 253.49 91.32C255.08 112.24 247.59 141.33 247.59 141.33L253.31 140.76C253.31 140.76 259.87 114.43 260.67 91.92C261.47 69.4 246.92 60.44 244.13 65.22Z" fill="url(#paint6_linear_1_2)"/>
<path d="M86.05 69.56C94.25 65.89 96.38 74 90.93 77.05C83.34 81.31 4.13999 121.22 12.38 230.17C21.03 344.59 89.43 327.57 123.59 278.46C123.59 278.46 113 346.86 67.47 348.3C21.94 349.74 -23.4 239.65 13.62 147.8C30.39 107.89 79.1 72.66 86.06 69.56H86.05Z" fill="url(#paint7_linear_1_2)"/>
<path d="M396.87 350.27C396.87 350.27 386.51 302.94 331.75 331.44C355.1 333.24 355.1 352.55 339.39 419.02C323.67 485.49 302.32 553.31 353.31 553.31C368.58 553.31 393.28 530.4 393.28 530.4C393.28 530.4 350.91 552.69 380.18 473.55C380.18 473.55 432.61 467.91 460.22 420.95C489.8 370.65 464.93 274.27 396.87 350.27ZM387.32 436.52C383.84 404.76 404.71 363.94 421.92 375.18C439.13 386.43 416.47 426.08 387.32 436.52Z" fill="#FFECDB" stroke="#1D1D1B" stroke-width="4" stroke-linecap="round" stroke-linejoin="round"/>
<path d="M573.06 387.05C555.05 294.56 522.91 289.46 484.77 309.31C504.31 305.74 508.79 314.19 500.51 343.96C492.24 373.73 457.79 471.09 462.2 512.06C466.74 554.25 513.77 518.85 513.77 518.85C486.9 531.71 509.75 465.95 509.75 465.95L545.87 465.86C545.87 465.86 545.23 473.42 553 500.34C565.47 543.56 606.94 504.07 606.94 504.07C581.63 510.35 591.07 479.54 573.06 387.05ZM515.71 429.33L530.03 363.94L543.01 428.64L515.7 429.33H515.71Z" fill="#FFECDB" stroke="#1D1D1B" stroke-width="4" stroke-linecap="round" stroke-linejoin="round"/>
<path d="M660.72 418.14C683.31 376 767.23 260.02 658.18 277.99C686.43 281.25 665.79 333.23 644.98 368.39C634.35 304.27 596.18 257.38 552.23 309.65C590.71 304.16 599.62 360.54 617.16 417.35C617.16 417.35 588.68 519.16 652.64 509.12C677.41 505.23 682.96 483.5 682.96 483.5C682.96 483.5 637.14 513.34 660.71 418.14H660.72Z" fill="#FFECDB" stroke="#1D1D1B" stroke-width="4" stroke-linecap="round" stroke-linejoin="round"/>
<path d="M324.41 341.61C326.44 335.06 350.16 330.32 342.7 373.45C335.24 416.58 317.09 484.32 315.68 499.13C314.27 513.94 312.05 564.1 351.79 560.05C380.72 557.06 397.68 534.3 397.68 534.3C397.68 534.3 398.8 592.01 351.79 592C313.07 591.99 298.91 543.4 309.06 494.56C319.2 445.72 331.6 400.63 331.98 384.85C332.36 369.07 319.9 350.46 324.41 341.61Z" fill="url(#paint8_linear_1_2)"/>
<path d="M413.07 379.68C411 380.36 408.79 381.24 407.66 383.12C406.68 384.75 406.74 386.82 407.22 388.66C407.7 390.5 408.57 392.22 409.13 394.04C410.86 399.67 409.53 405.89 406.72 411.07C403.91 416.25 399.74 420.53 395.5 424.61C405.48 419.84 413.64 411.37 418.03 401.21C418.68 399.7 419.26 398.15 419.81 396.59C420.7 394.11 421.45 391.54 421.46 388.9C421.46 384.66 419.35 378.59 413.07 379.68Z" fill="url(#paint9_linear_1_2)"/>
<path d="M481.04 323.56C480.75 311.19 499.96 313.09 498.62 325.76C497.28 338.43 480.77 388.93 473.78 415.91C466.78 442.9 441.13 520.28 466.12 536.39C485.63 548.12 516.44 522.1 516.44 522.1C516.44 522.1 517.3 570.19 482.75 571.87C452.46 573.34 438.51 549.56 445.91 506.1C453.3 462.63 471.87 408.49 476.01 392.52C480.15 376.55 481.82 356.08 481.04 323.56Z" fill="url(#paint10_linear_1_2)"/>
<path d="M529.56 383.59L527.55 394.91L532.24 423.76L537.64 423.64L529.56 383.59Z" fill="url(#paint11_linear_1_2)"/>
<path d="M343.17 427.15L383.49 421.68C383.49 421.68 382.46 436.37 384.71 442.26C384.71 442.26 411.16 435.24 420.38 416.67C434.08 414.81 460.5 411.23 460.5 411.23C460.5 411.23 444.61 460.76 375.74 470.11C369.26 484.75 353.94 542.08 378.63 537.02C353.94 553.47 328.6 551.69 326.6 519.67C324.6 487.65 343.17 427.14 343.17 427.14V427.15Z" fill="url(#paint12_linear_1_2)"/>
<path d="M484.99 411.87L517.19 406.91L511.73 433.26H549L542.56 403.01L571.25 398.91C571.25 398.91 579.42 443.27 580.45 458.2C581.48 473.13 583.11 511.38 596.96 507.88C590.11 517.92 564.24 523.86 558.01 502.55C551.77 481.25 549.95 462.07 549.95 462.07H506.43C506.43 462.07 500.43 485.01 499.09 491.71C497.75 498.41 493.12 518.64 502.38 521.69C491.3 528.38 465.66 537.47 467.65 500.23C469.43 466.95 485 411.87 485 411.87H484.99Z" fill="url(#paint13_linear_1_2)"/>
<path d="M611.68 385.32L621.05 414.98C621.05 414.98 607.22 475.65 623.28 493.04C639.34 510.44 660.19 500.62 668.78 491.92C668.78 491.92 646.2 494.71 648.26 458.46C650.5 418.9 654.28 415.19 654.28 415.19L677.48 375.83L611.68 385.3V385.32Z" fill="url(#paint14_linear_1_2)"/>
<path d="M317.98 53.22C313.96 57.24 324.83 67.81 326.51 82.07C328.19 96.33 311.32 166.18 305.53 189.36C299.74 212.54 288.19 256.17 308.72 249.93C313.65 248.54 310.94 238.14 310.8 228.43C310.66 218.72 313.62 185.42 320.09 163.52C353.94 48.97 321.23 47.18 317.98 53.22Z" fill="url(#paint15_linear_1_2)"/>
<path d="M396.48 44.13C402.76 35.42 429.31 31.32 407.69 113.94C386.07 196.56 386.95 208.59 387.92 216.95C388.89 225.31 389.37 234 382.45 234.64C375.53 235.28 372 225.31 375.37 207.3C378.74 189.29 384.88 165.89 389.82 144.89C394.76 123.89 400.07 105.06 399.58 92.03C399.09 79 389.82 56.12 396.47 44.13H396.48Z" fill="url(#paint16_linear_1_2)"/>
<path d="M485.93 80.73C483.86 81.41 481.65 82.29 480.52 84.17C479.54 85.8 479.6 87.87 480.08 89.71C480.56 91.55 481.43 93.27 481.99 95.09C483.72 100.72 482.39 106.94 479.58 112.12C476.77 117.3 472.6 121.58 468.36 125.66C478.34 120.89 486.5 112.42 490.89 102.26C491.54 100.75 492.12 99.2 492.67 97.64C493.56 95.16 494.31 92.59 494.32 89.95C494.32 85.71 492.21 79.64 485.93 80.73Z" fill="url(#paint17_linear_1_2)"/>
<path d="M540.42 18.53C533.1 26.66 542.65 32.69 548.09 50.33C556.55 77.73 539.28 140.77 532.56 171.95C525.84 203.13 515.94 273.53 563.35 270.03C610.76 266.53 613.75 214.26 613.75 214.26C613.75 214.26 585.51 243.91 556.8 239.35C528.09 234.79 533.52 188.56 535.83 174.69C538.14 160.82 561.15 67.55 560.95 45.09C560.77 25 548.8 11.89 540.41 18.53H540.42Z" fill="url(#paint18_linear_1_2)"/>
<path d="M469.1 236.34C438.28 270.24 403.72 266.46 392.52 245.49C392.21 244.97 391.39 242.44 390.8 241.38C390.74 242.32 389.83 244.72 387.97 247.08C384.55 249.88 371.05 260.56 353.07 269.99C332.17 280.95 312.32 259.89 312.32 259.89C312.32 259.89 296 274.99 274.3 283.44C252.6 291.89 239.93 283.44 234.75 259.19C229.57 234.94 240.7 194.55 240.7 194.55L231.87 195.7C231.87 195.7 224.96 239.86 226.24 259.19C227.52 278.52 235.85 316.45 269.2 315.23C304.93 315.89 313.66 286.08 313.66 286.08C313.66 286.08 324.54 307.02 353.07 304.42C354.88 304.25 356.61 303.87 358.25 303.31C373.75 299.05 384.88 287.12 389.83 274.44C401.35 289.21 418.86 291.88 427.37 292.25C429.34 292.45 431.06 292.42 432.38 292.22C449.78 289.55 473.77 270.54 469.09 236.36L469.1 236.34Z" fill="url(#paint19_linear_1_2)"/>
<path d="M532.24 473H539.01C539.01 473 544.25 522.71 566.96 526.04C589.67 529.37 614.13 505.87 614.13 505.87C614.13 505.87 629.06 520.64 652.88 514.45C676.7 508.26 688.93 485.86 688.93 485.86C688.93 485.86 692.17 540.7 654 545.48C621.93 549.5 616.47 533.94 616.47 533.94C616.47 533.94 599.29 556.56 580.01 556.92C560.73 557.28 530.49 542.66 532.24 473Z" fill="url(#paint20_linear_1_2)"/>
<path d="M653.01 287.81C653.55 281.08 666.8 283.36 666.82 296.07C666.84 311.22 647.47 352.72 647.47 352.72C647.47 352.72 645.01 342.58 643.46 339.5C643.46 339.5 653.76 320.63 655.14 312.18C658.7 290.47 652.83 296.17 653.02 287.81H653.01Z" fill="url(#paint21_linear_1_2)"/>
<path d="M561 316.85C568.16 309.78 585.13 336.12 589.5 347.05C593.87 357.98 610.58 417.89 610.58 417.89C610.58 417.89 603.28 446.01 604.44 465.78C605.52 484.22 609.63 492.01 605.26 493.92C600.89 495.83 596.79 486 594.6 469.88C592.41 453.76 602.03 418.31 602.03 418.31C602.03 418.31 589.91 368.92 582.26 351.16C574.61 333.4 555.27 322.94 560.99 316.86L561 316.85Z" fill="url(#paint22_linear_1_2)"/>
</g>
<defs>
<linearGradient id="paint0_linear_1_2" x1="64.4" y1="302.69" x2="63.23" y2="177.31" gradientUnits="userSpaceOnUse">
<stop offset="0.06" stop-color="#FF0094"/>
<stop offset="0.51" stop-color="#FFAD14"/>
<stop offset="0.56" stop-color="#FFAE19"/>
<stop offset="0.63" stop-color="#FFB42A"/>
<stop offset="0.71" stop-color="#FFBC45"/>
<stop offset="0.8" stop-color="#FFC86A"/>
<stop offset="0.89" stop-color="#FFD79B"/>
<stop offset="0.99" stop-color="#FFEAD5"/>
<stop offset="1" stop-color="#FFECDB"/>
</linearGradient>
<linearGradient id="paint1_linear_1_2" x1="351.37" y1="259.77" x2="350.24" y2="138.09" gradientUnits="userSpaceOnUse">
<stop offset="0.06" stop-color="#FF0094"/>
<stop offset="0.51" stop-color="#FFAD14"/>
<stop offset="0.56" stop-color="#FFAE19"/>
<stop offset="0.63" stop-color="#FFB42A"/>
<stop offset="0.71" stop-color="#FFBC45"/>
<stop offset="0.8" stop-color="#FFC86A"/>
<stop offset="0.89" stop-color="#FFD79B"/>
<stop offset="0.99" stop-color="#FFEAD5"/>
<stop offset="1" stop-color="#FFECDB"/>
</linearGradient>
<linearGradient id="paint2_linear_1_2" x1="574.67" y1="228.15" x2="573.53" y2="106.47" gradientUnits="userSpaceOnUse">
<stop offset="0.06" stop-color="#FF0094"/>
<stop offset="0.51" stop-color="#FFAD14"/>
<stop offset="0.56" stop-color="#FFAE19"/>
<stop offset="0.63" stop-color="#FFB42A"/>
<stop offset="0.71" stop-color="#FFBC45"/>
<stop offset="0.8" stop-color="#FFC86A"/>
<stop offset="0.89" stop-color="#FFD79B"/>
<stop offset="0.99" stop-color="#FFEAD5"/>
<stop offset="1" stop-color="#FFECDB"/>
</linearGradient>
<linearGradient id="paint3_linear_1_2" x1="466.31" y1="247.74" x2="465.05" y2="112.76" gradientUnits="userSpaceOnUse">
<stop offset="0.06" stop-color="#FF0094"/>
<stop offset="0.51" stop-color="#FFAD14"/>
<stop offset="0.55" stop-color="#FFAE19"/>
<stop offset="0.6" stop-color="#FFB42A"/>
<stop offset="0.66" stop-color="#FFBC45"/>
<stop offset="0.73" stop-color="#FFC86A"/>
<stop offset="0.8" stop-color="#FFD79B"/>
<stop offset="0.87" stop-color="#FFEAD5"/>
<stop offset="0.88" stop-color="#FFECDB"/>
</linearGradient>
<linearGradient id="paint4_linear_1_2" x1="227.02" y1="287.67" x2="225.82" y2="159.38" gradientUnits="userSpaceOnUse">
<stop offset="0.06" stop-color="#FF0094"/>
<stop offset="0.51" stop-color="#FFAD14"/>
<stop offset="0.56" stop-color="#FFAE19"/>
<stop offset="0.62" stop-color="#FFB42A"/>
<stop offset="0.7" stop-color="#FFBC45"/>
<stop offset="0.78" stop-color="#FFC86A"/>
<stop offset="0.86" stop-color="#FFD79B"/>
<stop offset="0.95" stop-color="#FFEAD5"/>
<stop offset="0.96" stop-color="#FFECDB"/>
</linearGradient>
<linearGradient id="paint5_linear_1_2" x1="230.68" y1="27.34" x2="106.96" y2="466.09" gradientUnits="userSpaceOnUse">
<stop stop-color="#00D68D"/>
<stop offset="0.24" stop-color="#00D08C"/>
<stop offset="0.54" stop-color="#00BF89"/>
<stop offset="0.89" stop-color="#00A584"/>
<stop offset="1" stop-color="#009B83"/>
</linearGradient>
<linearGradient id="paint6_linear_1_2" x1="261.13" y1="28.44" x2="196.42" y2="424.11" gradientUnits="userSpaceOnUse">
<stop stop-color="#00D68D"/>
<stop offset="0.24" stop-color="#00D08C"/>
<stop offset="0.54" stop-color="#00BF89"/>
<stop offset="0.89" stop-color="#00A584"/>
<stop offset="1" stop-color="#009B83"/>
</linearGradient>
<linearGradient id="paint7_linear_1_2" x1="118.45" y1="45.52" x2="-7.4" y2="468.95" gradientUnits="userSpaceOnUse">
<stop stop-color="#00D68D"/>
<stop offset="0.24" stop-color="#00D08C"/>
<stop offset="0.54" stop-color="#00BF89"/>
<stop offset="0.89" stop-color="#00A584"/>
<stop offset="1" stop-color="#009B83"/>
</linearGradient>
<linearGradient id="paint8_linear_1_2" x1="418.75" y1="296.01" x2="283.18" y2="647.09" gradientUnits="userSpaceOnUse">
<stop stop-color="#00D68D"/>
<stop offset="0.24" stop-color="#00D08C"/>
<stop offset="0.54" stop-color="#00BF89"/>
<stop offset="0.89" stop-color="#00A584"/>
<stop offset="1" stop-color="#009B83"/>
</linearGradient>
<linearGradient id="paint9_linear_1_2" x1="408.65" y1="424.49" x2="408.23" y2="379.61" gradientUnits="userSpaceOnUse">
<stop stop-color="#00D68D"/>
<stop offset="0.24" stop-color="#00D08C"/>
<stop offset="0.54" stop-color="#00BF89"/>
<stop offset="0.89" stop-color="#00A584"/>
<stop offset="1" stop-color="#009B83"/>
</linearGradient>
<linearGradient id="paint10_linear_1_2" x1="534.78" y1="290.66" x2="432" y2="679.68" gradientUnits="userSpaceOnUse">
<stop stop-color="#00D68D"/>
<stop offset="0.24" stop-color="#00D08C"/>
<stop offset="0.54" stop-color="#00BF89"/>
<stop offset="0.89" stop-color="#00A584"/>
<stop offset="1" stop-color="#009B83"/>
</linearGradient>
<linearGradient id="paint11_linear_1_2" x1="559.95" y1="317.9" x2="479.06" y2="581.02" gradientUnits="userSpaceOnUse">
<stop stop-color="#00D68D"/>
<stop offset="0.24" stop-color="#00D08C"/>
<stop offset="0.54" stop-color="#00BF89"/>
<stop offset="0.89" stop-color="#00A584"/>
<stop offset="1" stop-color="#009B83"/>
</linearGradient>
<linearGradient id="paint12_linear_1_2" x1="399.9" y1="549.66" x2="391.05" y2="432.38" gradientUnits="userSpaceOnUse">
<stop offset="0.06" stop-color="#FF0094"/>
<stop offset="0.51" stop-color="#FFAD14"/>
<stop offset="0.56" stop-color="#FFAE19"/>
<stop offset="0.63" stop-color="#FFB42A"/>
<stop offset="0.71" stop-color="#FFBC45"/>
<stop offset="0.8" stop-color="#FFC86A"/>
<stop offset="0.89" stop-color="#FFD79B"/>
<stop offset="0.99" stop-color="#FFEAD5"/>
<stop offset="1" stop-color="#FFECDB"/>
</linearGradient>
<linearGradient id="paint13_linear_1_2" x1="534.54" y1="534.64" x2="523.03" y2="397.45" gradientUnits="userSpaceOnUse">
<stop offset="0.06" stop-color="#FF0094"/>
<stop offset="0.51" stop-color="#FFAD14"/>
<stop offset="0.55" stop-color="#FFAE19"/>
<stop offset="0.61" stop-color="#FFB42A"/>
<stop offset="0.67" stop-color="#FFBC45"/>
<stop offset="0.74" stop-color="#FFC86A"/>
<stop offset="0.81" stop-color="#FFD79B"/>
<stop offset="0.89" stop-color="#FFEAD5"/>
<stop offset="0.9" stop-color="#FFECDB"/>
</linearGradient>
<linearGradient id="paint14_linear_1_2" x1="645.72" y1="502.67" x2="644.54" y2="376.16" gradientUnits="userSpaceOnUse">
<stop offset="0.06" stop-color="#FF0094"/>
<stop offset="0.51" stop-color="#FFAD14"/>
<stop offset="0.55" stop-color="#FFAE19"/>
<stop offset="0.62" stop-color="#FFB42A"/>
<stop offset="0.69" stop-color="#FFBC45"/>
<stop offset="0.76" stop-color="#FFC86A"/>
<stop offset="0.85" stop-color="#FFD79B"/>
<stop offset="0.93" stop-color="#FFEAD5"/>
<stop offset="0.94" stop-color="#FFECDB"/>
</linearGradient>
<linearGradient id="paint15_linear_1_2" x1="346.37" y1="14.76" x2="251.15" y2="417.82" gradientUnits="userSpaceOnUse">
<stop stop-color="#00D68D"/>
<stop offset="0.24" stop-color="#00D08C"/>
<stop offset="0.54" stop-color="#00BF89"/>
<stop offset="0.89" stop-color="#00A584"/>
<stop offset="1" stop-color="#009B83"/>
</linearGradient>
<linearGradient id="paint16_linear_1_2" x1="431.07" y1="8.3" x2="323.83" y2="361.45" gradientUnits="userSpaceOnUse">
<stop stop-color="#00D68D"/>
<stop offset="0.24" stop-color="#00D08C"/>
<stop offset="0.54" stop-color="#00BF89"/>
<stop offset="0.89" stop-color="#00A584"/>
<stop offset="1" stop-color="#009B83"/>
</linearGradient>
<linearGradient id="paint17_linear_1_2" x1="511.24" y1="12.17" x2="422.5" y2="295.05" gradientUnits="userSpaceOnUse">
<stop stop-color="#00D68D"/>
<stop offset="0.24" stop-color="#00D08C"/>
<stop offset="0.54" stop-color="#00BF89"/>
<stop offset="0.89" stop-color="#00A584"/>
<stop offset="1" stop-color="#009B83"/>
</linearGradient>
<linearGradient id="paint18_linear_1_2" x1="604.24" y1="35.94" x2="529.41" y2="261.94" gradientUnits="userSpaceOnUse">
<stop stop-color="#00D68D"/>
<stop offset="0.24" stop-color="#00D08C"/>
<stop offset="0.54" stop-color="#00BF89"/>
<stop offset="0.89" stop-color="#00A584"/>
<stop offset="1" stop-color="#009B83"/>
</linearGradient>
<linearGradient id="paint19_linear_1_2" x1="356.27" y1="204.52" x2="320.44" y2="331.6" gradientUnits="userSpaceOnUse">
<stop stop-color="#00D68D"/>
<stop offset="0.24" stop-color="#00D08C"/>
<stop offset="0.54" stop-color="#00BF89"/>
<stop offset="0.89" stop-color="#00A584"/>
<stop offset="1" stop-color="#009B83"/>
</linearGradient>
<linearGradient id="paint20_linear_1_2" x1="619.69" y1="462.28" x2="585.95" y2="561.31" gradientUnits="userSpaceOnUse">
<stop stop-color="#00D68D"/>
<stop offset="0.24" stop-color="#00D08C"/>
<stop offset="0.54" stop-color="#00BF89"/>
<stop offset="0.89" stop-color="#00A584"/>
<stop offset="1" stop-color="#009B83"/>
</linearGradient>
<linearGradient id="paint21_linear_1_2" x1="668.49" y1="239.78" x2="610.25" y2="584.6" gradientUnits="userSpaceOnUse">
<stop stop-color="#00D68D"/>
<stop offset="0.24" stop-color="#00D08C"/>
<stop offset="0.54" stop-color="#00BF89"/>
<stop offset="0.89" stop-color="#00A584"/>
<stop offset="1" stop-color="#009B83"/>
</linearGradient>
<linearGradient id="paint22_linear_1_2" x1="599.62" y1="269.4" x2="554.32" y2="652.13" gradientUnits="userSpaceOnUse">
<stop stop-color="#00D68D"/>
<stop offset="0.24" stop-color="#00D08C"/>
<stop offset="0.54" stop-color="#00BF89"/>
<stop offset="0.89" stop-color="#00A584"/>
<stop offset="1" stop-color="#009B83"/>
</linearGradient>
<clipPath id="clip0_1_2">
<rect width="714.86" height="592" fill="white"/>
</clipPath>
</defs>
</svg>
